<svg width="1440" height="280" viewBox="0 0 1440 280" fill="none" xmlns="http://www.w3.org/2000/svg">
<path d="M161.232 260.636C121.327 238.31 37.1169 245.259 0 251.524V280H1440V171.789C1435.97 169.511 1423.88 170.84 1418.33 171.789C1443.33 139.896 1361.57 131.543 1317.56 131.353C1284.92 105.838 1231.07 105.534 1208.23 108.572C1211.05 102.649 1203.69 94.3335 1199.66 90.9163C1207.73 84.0819 1200.67 71.7421 1196.14 66.4265C1204.2 58.2253 1195.13 50.1 1189.59 47.0625C1194.02 41.5951 1189.08 33.7735 1186.06 30.5462C1185.66 23.7118 1182.2 15.9283 1180.52 12.8908C1170.44 -1.23355 1137.69 -0.967763 1122.58 0.930671C1114.92 -0.891823 1105.61 12.3213 1101.92 19.1556C1093.86 17.3331 1089.83 25.99 1088.82 30.5462C1075.92 33.7356 1073.7 48.961 1074.21 56.175C1063.32 62.0981 1060.27 75.3492 1060.1 81.2343C1005.68 65.2875 944.381 78.007 920.532 86.36C909.649 78.6144 884.087 78.5765 872.666 79.5257C868.232 72.2357 862.757 70.0335 860.574 69.8437C868.232 61.1869 861.414 52.1883 857.047 48.7711C862.287 41.0255 856.543 34.9126 853.016 32.8243C849.388 14.5994 839.412 7.76503 834.878 6.62597C809.887 -2.03088 787.516 3.01895 779.454 6.62597C772.602 7.53721 767.866 16.8775 766.354 21.4337C758.293 20.0669 754.934 28.4579 754.262 32.8243C744.185 33.7356 743.345 50.2899 744.185 58.4531C726.852 60.7312 725.878 78.007 727.558 86.36C710.628 95.0169 711.435 107.812 713.954 113.128C693.397 110.394 674.822 124.139 668.104 131.353C577.814 129.986 565.654 159.639 570.861 174.637C509.996 164.158 476.305 190.774 467.068 205.392C348.563 206.303 314.57 242.601 312.386 260.636C267.241 248.79 192.806 255.7 161.232 260.636Z" fill="url(#paint0_linear_1_5040)"/>
<defs>
<linearGradient id="paint0_linear_1_5040" x1="720" y1="-108" x2="720" y2="260.5" gradientUnits="userSpaceOnUse">
<stop stop-color="#24C68C"/>
<stop offset="1" stop-color="#0D1F19"/>
</linearGradient>
</defs>
</svg>
