<svg width="46" height="54" viewBox="0 0 46 54" fill="none" xmlns="http://www.w3.org/2000/svg">
<g clip-path="url(#clip0_42_41)">
<path d="M0.361126 12.5061L6.3441 15.4037C5.37355 10.0794 8.91898 8.47851 12.2609 6.6365C15.9864 4.58337 19.6468 2.40504 23.8199 0.00317383C24.0946 2.37606 24.2971 4.1177 24.5657 6.44195C28.6635 2.92349 31.5578 6.00421 35.028 7.3226C44.0223 10.7376 47.1028 16.8659 45.6592 26.3181C44.947 30.9687 45.5361 35.8242 45.5361 41.1236L39.5236 38.5944C40.4056 43.779 37.0036 45.3405 33.7695 47.1339C29.9158 49.2646 26.1517 51.5434 21.9307 54.0001C21.7212 51.561 21.5665 49.7624 21.361 47.3771C16.4412 51.4451 13.2762 47.0666 9.36763 45.5817C1.73047 42.6841 -0.834246 37.5265 0.228873 29.4516C0.927785 24.1481 0.361126 18.6727 0.361126 12.5061ZM15.0881 26.6741C15.081 30.8745 19.0171 35.5913 22.7182 35.8241C26.0398 36.0311 30.7755 30.9263 30.7846 27.1242C30.7958 22.8866 26.9188 18.2474 23.1485 17.9928C19.7862 17.7745 15.0952 22.8183 15.0881 26.6741ZM26.3674 15.2153L25.9482 16.78C32.7827 18.4513 34.1887 23.0863 33.5427 29.1867C33.4145 30.413 35.0381 31.8286 35.853 33.1574L37.023 32.4858C37.023 28.7603 36.9141 25.0349 37.0515 21.3167C37.2142 16.9621 33.2313 16.9518 30.9393 15.3405C29.8904 14.6027 27.9208 15.2153 26.3674 15.2153ZM10.7736 20.7569L9.02071 21.3147C9.02071 25.4426 8.28111 29.7734 9.3076 33.6189C9.89359 35.8169 13.2111 37.4809 15.5958 38.8542C16.5378 39.3964 18.2846 38.4951 19.6651 38.2498C19.773 37.8545 19.8811 37.4585 19.9897 37.0618C13.3078 35.3781 11.5458 30.9563 12.3596 24.7814C12.5305 23.5354 11.3392 22.1032 10.7736 20.7569ZM41.953 18.6872L43.0853 17.5582C41.3558 11.6368 34.856 11.255 30.804 8.06665C29.8762 7.33708 27.9178 7.96316 26.4294 7.96316L26.2758 9.4792L41.953 18.6872ZM19.1514 46.1736L19.5207 44.2902L3.53827 34.9642C3.94521 41.9225 10.151 42.1563 13.9151 45.0839C15.1878 46.0742 17.3792 45.8445 19.1514 46.1736ZM21.1983 5.08217C17.2062 8.25706 10.271 7.87624 9.42155 14.7165C13.7208 11.9204 20.0934 11.7289 21.1983 5.08217ZM3.6278 17.5427C4.14563 22.5948 0.45676 28.4675 5.88426 32.5913C5.49971 27.502 8.67177 21.8486 3.6278 17.5427ZM40.0892 21.2484C38.1807 29.3709 39.0892 34.9021 42.5237 36.0735C43.8534 25.4892 43.4119 22.8131 40.0892 21.2484ZM34.8723 35.968C31.6402 33.6913 27.2036 35.3999 20.2359 41.2798C23.6409 43.7013 24.1374 43.5254 34.8723 35.968ZM10.7115 17.5541C14.0687 20.1805 19.8401 17.9587 26.0672 11.7103C19.1788 10.3081 15.7921 15.801 10.7115 17.5541ZM23.7101 49.5627C36.732 43.363 37.6649 42.4989 35.7452 38.5427C32.1815 42.2246 25.522 42.1646 23.7101 49.5627Z" fill="white"/>
</g>
<defs>
<clipPath id="clip0_42_41">
<rect width="46" height="54" fill="white"/>
</clipPath>
</defs>
</svg>
