<svg width="1440" height="387" viewBox="0 0 1440 387" fill="none" xmlns="http://www.w3.org/2000/svg">
<mask id="path-1-inside-1_22_184" fill="white">
<path d="M0 0H1441V387H0V0Z"/>
</mask>
<path d="M0 0H1441V387H0V0Z" fill="url(#paint0_linear_22_184)"/>
<path d="M0 387.5H7.50521V386.5H0V387.5ZM22.5156 387.5H37.526V386.5H22.5156V387.5ZM52.5365 387.5H67.5469V386.5H52.5365V387.5ZM82.5573 387.5H97.5677V386.5H82.5573V387.5ZM112.578 387.5H127.589V386.5H112.578V387.5ZM142.599 387.5H157.609V386.5H142.599V387.5ZM172.62 387.5H187.63V386.5H172.62V387.5ZM202.641 387.5H217.651V386.5H202.641V387.5ZM232.661 387.5H247.672V386.5H232.661V387.5ZM262.682 387.5H277.693V386.5H262.682V387.5ZM292.703 387.5H307.714V386.5H292.703V387.5ZM322.724 387.5H337.734V386.5H322.724V387.5ZM352.745 387.5H367.755V386.5H352.745V387.5ZM382.766 387.5H397.776V386.5H382.766V387.5ZM412.786 387.5H427.797V386.5H412.786V387.5ZM442.807 387.5H457.818V386.5H442.807V387.5ZM472.828 387.5H487.838V386.5H472.828V387.5ZM502.849 387.5H517.859V386.5H502.849V387.5ZM532.87 387.5H547.88V386.5H532.87V387.5ZM562.891 387.5H577.901V386.5H562.891V387.5ZM592.911 387.5H607.922V386.5H592.911V387.5ZM622.932 387.5H637.943V386.5H622.932V387.5ZM652.953 387.5H667.964V386.5H652.953V387.5ZM682.974 387.5H697.984V386.5H682.974V387.5ZM712.995 387.5H728.005V386.5H712.995V387.5ZM743.016 387.5H758.026V386.5H743.016V387.5ZM773.037 387.5H788.047V386.5H773.037V387.5ZM803.058 387.5H818.068V386.5H803.058V387.5ZM833.078 387.5H848.089V386.5H833.078V387.5ZM863.099 387.5H878.11V386.5H863.099V387.5ZM893.12 387.5H908.131V386.5H893.12V387.5ZM923.141 387.5H938.151V386.5H923.141V387.5ZM953.162 387.5H968.172V386.5H953.162V387.5ZM983.183 387.5H998.193V386.5H983.183V387.5ZM1013.2 387.5H1028.21V386.5H1013.2V387.5ZM1043.22 387.5H1058.23V386.5H1043.22V387.5ZM1073.25 387.5H1088.26V386.5H1073.25V387.5ZM1103.27 387.5H1118.28V386.5H1103.27V387.5ZM1133.29 387.5H1148.3V386.5H1133.29V387.5ZM1163.31 387.5H1178.32V386.5H1163.31V387.5ZM1193.33 387.5H1208.34V386.5H1193.33V387.5ZM1223.35 387.5H1238.36V386.5H1223.35V387.5ZM1253.37 387.5H1268.38V386.5H1253.37V387.5ZM1283.39 387.5H1298.4V386.5H1283.39V387.5ZM1313.41 387.5H1328.42V386.5H1313.41V387.5ZM1343.43 387.5H1358.44V386.5H1343.43V387.5ZM1373.45 387.5H1388.46V386.5H1373.45V387.5ZM1403.47 387.5H1418.48V386.5H1403.47V387.5ZM1433.49 387.5H1441V386.5H1433.49V387.5ZM0 388H7.50521V386H0V388ZM22.5156 388H37.526V386H22.5156V388ZM52.5365 388H67.5469V386H52.5365V388ZM82.5573 388H97.5677V386H82.5573V388ZM112.578 388H127.589V386H112.578V388ZM142.599 388H157.609V386H142.599V388ZM172.62 388H187.63V386H172.62V388ZM202.641 388H217.651V386H202.641V388ZM232.661 388H247.672V386H232.661V388ZM262.682 388H277.693V386H262.682V388ZM292.703 388H307.714V386H292.703V388ZM322.724 388H337.734V386H322.724V388ZM352.745 388H367.755V386H352.745V388ZM382.766 388H397.776V386H382.766V388ZM412.786 388H427.797V386H412.786V388ZM442.807 388H457.818V386H442.807V388ZM472.828 388H487.838V386H472.828V388ZM502.849 388H517.859V386H502.849V388ZM532.87 388H547.88V386H532.87V388ZM562.891 388H577.901V386H562.891V388ZM592.911 388H607.922V386H592.911V388ZM622.932 388H637.943V386H622.932V388ZM652.953 388H667.964V386H652.953V388ZM682.974 388H697.984V386H682.974V388ZM712.995 388H728.005V386H712.995V388ZM743.016 388H758.026V386H743.016V388ZM773.037 388H788.047V386H773.037V388ZM803.058 388H818.068V386H803.058V388ZM833.078 388H848.089V386H833.078V388ZM863.099 388H878.11V386H863.099V388ZM893.12 388H908.131V386H893.12V388ZM923.141 388H938.151V386H923.141V388ZM953.162 388H968.172V386H953.162V388ZM983.183 388H998.193V386H983.183V388ZM1013.2 388H1028.21V386H1013.2V388ZM1043.22 388H1058.23V386H1043.22V388ZM1073.25 388H1088.26V386H1073.25V388ZM1103.27 388H1118.28V386H1103.27V388ZM1133.29 388H1148.3V386H1133.29V388ZM1163.31 388H1178.32V386H1163.31V388ZM1193.33 388H1208.34V386H1193.33V388ZM1223.35 388H1238.36V386H1223.35V388ZM1253.37 388H1268.38V386H1253.37V388ZM1283.39 388H1298.4V386H1283.39V388ZM1313.41 388H1328.42V386H1313.41V388ZM1343.43 388H1358.44V386H1343.43V388ZM1373.45 388H1388.46V386H1373.45V388ZM1403.47 388H1418.48V386H1403.47V388ZM1433.49 388H1441V386H1433.49V388Z" fill="#22674E" mask="url(#path-1-inside-1_22_184)"/>
<defs>
<linearGradient id="paint0_linear_22_184" x1="720.5" y1="-85" x2="720.5" y2="387" gradientUnits="userSpaceOnUse">
<stop stop-color="#20B27E"/>
<stop stop-color="#48CC9D"/>
<stop stop-color="#33A77D"/>
<stop offset="0.0815685" stop-color="#207C5B"/>
<stop offset="0.105057" stop-color="#146246"/>
<stop offset="0.260902" stop-color="#0A5037"/>
<stop offset="0.506477" stop-color="#033A27"/>
<stop offset="0.676491" stop-color="#033221"/>
<stop offset="0.827614" stop-color="#02291B"/>
<stop offset="0.974014" stop-color="#02291B"/>
</linearGradient>
</defs>
</svg>
