<svg width="307" height="455" viewBox="0 0 307 455" fill="none" xmlns="http://www.w3.org/2000/svg">
<g clip-path="url(#clip0_73_41)">
<path opacity="0.2" d="M153.688 455C196.238 455 230.732 450.457 230.732 444.852C230.732 439.247 196.238 434.704 153.688 434.704C111.137 434.704 76.6431 439.247 76.6431 444.852C76.6431 450.457 111.137 455 153.688 455Z" fill="#178755"/>
<path d="M130.198 109.087L92.6828 190.17C92.1734 191.272 91.4439 192.259 90.539 193.07C89.6341 193.881 88.5729 194.5 87.4204 194.887C86.2679 195.274 85.0483 195.422 83.8364 195.322C82.6246 195.222 81.4459 194.876 80.3727 194.305L70.5268 189.08L47.6849 176.961C45.6362 175.875 44.0911 174.035 43.3762 171.831C42.6613 169.628 42.8328 167.233 43.8543 165.153L46.7892 159.162C66.1389 167.701 67.563 141.819 57.784 136.737L66.8483 118.239L82.2166 86.879C83.2427 84.7893 85.0451 83.182 87.2402 82.3994C89.4353 81.6168 91.8497 81.7206 93.9693 82.6888L125.803 97.2353C126.873 97.7236 127.835 98.418 128.635 99.2786C129.435 100.139 130.057 101.149 130.465 102.25C130.874 103.351 131.06 104.522 131.014 105.695C130.968 106.868 130.691 108.021 130.198 109.087Z" fill="#83AA9B"/>
<path d="M84.5535 197.887C82.677 197.885 80.8301 197.421 79.1767 196.535L46.4981 179.193C43.86 177.807 41.8691 175.447 40.9507 172.616C40.0323 169.784 40.2592 166.706 41.583 164.04L44.5166 158.053C44.8039 157.466 45.3076 157.014 45.922 156.79C46.5365 156.566 47.2139 156.588 47.8121 156.852C51.9732 158.686 57.4745 159.758 60.0435 154.418C62.5496 149.211 60.7556 141.13 56.6155 138.979C56.0302 138.674 55.5872 138.153 55.3809 137.527C55.1747 136.901 55.2215 136.219 55.5113 135.626L64.5757 117.128C64.6019 117.074 64.6294 117.022 64.6596 116.971L79.9505 85.7685C81.2529 83.0738 83.5648 80.999 86.3867 79.9922C89.2085 78.9855 92.3138 79.1277 95.0315 80.388L126.858 94.9319C128.231 95.5585 129.466 96.4497 130.493 97.5544C131.52 98.659 132.318 99.9552 132.842 101.369C133.366 102.782 133.605 104.285 133.546 105.791C133.487 107.297 133.13 108.777 132.497 110.145L94.9817 191.228C94.3324 192.646 93.3972 193.916 92.2345 194.957C91.0718 195.999 89.7066 196.79 88.2241 197.281C87.0417 197.681 85.8019 197.886 84.5535 197.887ZM48.0377 162.363L46.127 166.263C45.387 167.753 45.2598 169.473 45.7727 171.055C46.2856 172.637 47.3978 173.956 48.8717 174.73L81.5596 192.075C82.3289 192.484 83.174 192.733 84.0429 192.805C84.9118 192.876 85.7862 192.77 86.6125 192.493C87.4389 192.215 88.1998 191.772 88.8485 191.19C89.4972 190.609 90.0202 189.901 90.3852 189.11L127.902 108.028C128.256 107.263 128.456 106.437 128.489 105.595C128.523 104.754 128.389 103.914 128.097 103.124C127.804 102.334 127.359 101.61 126.785 100.993C126.211 100.375 125.521 99.877 124.754 99.5267L92.9241 84.9815C91.4042 84.2791 89.6688 84.2012 88.0919 84.7646C86.515 85.3279 85.223 86.4875 84.4945 87.9932L69.1275 119.353C69.1013 119.407 69.0724 119.459 69.0436 119.511L61.0152 135.895C66.4838 140.562 67.6024 150.38 64.6045 156.61C63.4531 158.997 58.997 166.08 48.0377 162.363Z" fill="#124F35"/>
<path d="M27.5209 209.765C27.5209 209.765 27.2796 225.086 35.1099 233.26C42.9403 241.435 57.4587 222.555 57.4587 222.555L51.8565 207.398" fill="#83AA9B"/>
<g opacity="0.68">
<path d="M107.17 99.1353L97.8785 95.241C96.8046 94.7908 95.5987 94.7687 94.509 95.1794C93.4193 95.5901 92.5287 96.4022 92.0205 97.4487L58.3334 166.837C57.8134 167.908 57.7158 169.136 58.06 170.276C58.4043 171.416 59.1651 172.385 60.1917 172.991L82.4854 186.146C83.3495 186.655 84.355 186.873 85.3529 186.768C86.3508 186.662 87.2881 186.238 88.026 185.559L88.7224 184.919" fill="#26CE92"/>
</g>
<path d="M39.8165 237.842C37.3131 237.842 35.0627 236.868 33.2819 235.007C24.8299 226.179 24.9807 210.39 24.9912 209.726C25.0012 209.063 25.272 208.43 25.745 207.965C26.2181 207.499 26.8555 207.238 27.5196 207.238H27.5603C28.2311 207.248 28.8704 207.524 29.3376 208.005C29.8048 208.486 30.0617 209.132 30.0519 209.802C30.0519 210.008 29.9496 224.206 36.9407 231.514C37.8324 232.445 38.8291 232.855 40.0723 232.781C44.9467 232.519 51.547 225.746 54.5907 222.088L49.4828 208.275C49.2505 207.647 49.2778 206.952 49.5586 206.343C49.8395 205.735 50.3509 205.262 50.9804 205.03C51.61 204.798 52.306 204.826 52.9154 205.106C53.5249 205.387 53.9978 205.897 54.2301 206.526L59.831 221.682C59.9792 222.083 60.0234 222.514 59.9594 222.936C59.8954 223.358 59.7254 223.757 59.4652 224.096C58.416 225.452 49.0291 237.36 40.3477 237.83C40.1693 237.837 39.9923 237.842 39.8165 237.842Z" fill="#124F35"/>
<g opacity="0.68">
<path d="M71.6113 202.829L69.2049 207.398L19.3286 212.989C19.3286 212.989 14.5066 204.025 19.3286 185.714C24.1506 167.402 35.4693 149.171 46.7892 132.837C57.9059 116.799 66.5375 118.172 66.8536 118.236L57.7892 136.734C67.5683 141.816 66.1441 167.698 46.7945 159.16L43.8596 165.15C42.8381 167.23 42.6666 169.625 43.3815 171.829C44.0963 174.032 45.6415 175.872 47.6902 176.959L70.532 189.078L71.6113 202.829Z" fill="#26CE92"/>
</g>
<g opacity="0.6">
<path d="M66.8483 118.239L64.8524 122.298C61.2172 123.518 55.5716 126.946 49.0802 136.309C37.7603 152.643 26.4416 170.878 21.6196 189.185C18.5549 200.821 19.3903 208.68 20.3974 212.866L19.3286 212.989C19.3286 212.989 14.5066 204.025 19.3286 185.714C24.1506 167.403 35.4693 149.171 46.7892 132.837C57.9059 116.802 66.5375 118.186 66.8483 118.239Z" fill="white"/>
</g>
<path d="M19.3273 215.518C18.8701 215.518 18.4213 215.394 18.0288 215.16C17.6363 214.925 17.3146 214.589 17.098 214.187C16.8816 213.785 11.8629 204.127 16.8803 185.073C21.9383 165.863 33.7855 147.161 44.7067 131.402C56.5486 114.321 66.2411 115.558 67.3073 115.755C67.691 115.826 68.053 115.984 68.3651 116.218C68.6771 116.452 68.9308 116.755 69.1063 117.103C69.2818 117.451 69.3743 117.835 69.3766 118.224C69.3789 118.614 69.291 118.999 69.1197 119.349L61.0139 135.891C66.4824 140.558 67.6011 150.376 64.6032 156.606C63.4518 158.997 58.9957 166.08 48.0364 162.368L46.1257 166.269C45.3854 167.758 45.2583 169.478 45.7715 171.06C46.2846 172.643 47.3974 173.962 48.8717 174.735L71.7136 186.854C72.0892 187.054 72.4085 187.344 72.6418 187.7C72.8752 188.055 73.0151 188.463 73.0486 188.886L74.1318 202.635C74.1698 203.111 74.0715 203.587 73.8485 204.009L71.4421 208.578C71.2499 208.943 70.971 209.255 70.63 209.488C70.2889 209.72 69.896 209.866 69.4855 209.912L19.6067 215.502C19.5139 215.512 19.4207 215.518 19.3273 215.518ZM62.3765 121.616C59.2213 122.955 54.436 126.247 48.8691 134.278C38.1983 149.675 26.6344 167.904 21.7744 186.358C18.4041 199.162 19.9896 207.114 20.9797 210.264L67.5893 205.037L69.0318 202.299L68.1138 190.659L46.4981 179.193C43.86 177.807 41.8691 175.447 40.9507 172.616C40.0323 169.784 40.2592 166.706 41.583 164.04L44.5166 158.053C44.8039 157.466 45.3076 157.014 45.922 156.79C46.5365 156.566 47.2139 156.588 47.8121 156.852C51.9732 158.686 57.4745 159.758 60.0435 154.418C62.5496 149.211 60.7556 141.13 56.6155 138.979C56.0299 138.674 55.5867 138.153 55.3805 137.527C55.1742 136.901 55.2211 136.219 55.5113 135.626L62.3765 121.616Z" fill="#124F35"/>
<path opacity="0.3" d="M208.71 370.278C208.71 370.278 208.5 371.043 208.125 372.335C206.563 377.69 202.092 392.075 197.634 397.704C193.282 403.183 154.632 408.956 122.943 402.68H122.935C116.127 401.33 109.635 399.425 103.874 396.84C100.785 395.439 98.3435 392.918 97.0432 389.789C94.7299 384.26 91.4409 374.271 91.1314 361.611C90.6514 341.883 208.71 370.278 208.71 370.278Z" fill="#0B6B44"/>
<path d="M99.9256 232.479C99.9256 232.479 80.5891 255.757 78.963 255.656C77.3369 255.555 19.3286 261.523 35.0496 234.277C42.0761 222.099 49.9117 214.212 56.4254 209.218C64.4852 203.024 70.5281 201.257 70.5281 201.257L95.3436 210.517L95.7777 212.612L99.9256 232.479Z" fill="white"/>
<path d="M95.7764 212.616L88.7171 218.268L57.4627 210.039C57.4627 210.039 57.0574 209.737 56.428 209.225C64.4878 203.031 70.5307 201.263 70.5307 201.263L95.3462 210.524L95.7764 212.616Z" fill="#199965"/>
<path d="M65.5868 258.669C47.0764 258.669 35.6358 255.327 31.5102 248.695C28.8612 244.437 29.3149 239.163 32.8583 233.022C48.9019 205.218 68.9702 199.086 69.816 198.838C70.3405 198.686 70.9002 198.706 71.412 198.897L96.2275 208.157C96.8516 208.395 97.3564 208.869 97.6315 209.477C97.9067 210.085 97.9299 210.777 97.6962 211.401C97.4624 212.026 96.9907 212.533 96.3838 212.812C95.777 213.091 95.0844 213.119 94.4571 212.89L70.4966 203.954C66.8536 205.328 50.5149 212.548 37.2423 235.549C34.7021 239.953 34.2261 243.481 35.8089 246.034C37.5767 248.877 45.1683 255.268 77.4024 253.219L78.2614 253.165C80.6311 251.217 89.9144 240.579 97.9782 230.872C98.1886 230.612 98.4487 230.396 98.7435 230.236C99.0383 230.077 99.3618 229.978 99.6953 229.945C100.029 229.911 100.366 229.944 100.686 230.042C101.007 230.14 101.304 230.3 101.562 230.514C101.82 230.728 102.033 230.99 102.189 231.287C102.344 231.583 102.439 231.908 102.468 232.241C102.496 232.574 102.459 232.91 102.356 233.229C102.254 233.547 102.089 233.843 101.872 234.097C101.825 234.156 96.9632 240.004 91.9668 245.764C81.2435 258.125 80.2954 258.272 78.883 258.192C78.6889 258.192 78.2915 258.225 77.7237 258.262C73.3891 258.533 69.3435 258.669 65.5868 258.669Z" fill="#124F35"/>
<g opacity="0.2">
<path d="M109.141 372.335C109.141 372.335 105.949 386.636 115.707 393.372C125.465 400.107 130.886 392.049 129.441 385.071C127.996 378.093 126.911 374.365 126.911 374.365" fill="white"/>
</g>
<path d="M153.078 407.936C139.064 407.936 119.006 406.409 102.833 399.151C99.1526 397.494 96.2445 394.497 94.7023 390.771C92.0887 384.529 88.9073 374.413 88.5965 361.679C88.5414 359.445 89.4895 357.476 91.3399 355.985C93.8499 353.96 101.485 347.802 156.796 357.143C183.663 361.681 209.047 367.763 209.3 367.823C209.629 367.902 209.938 368.046 210.21 368.247C210.483 368.448 210.712 368.701 210.884 368.991C211.057 369.282 211.169 369.604 211.215 369.938C211.26 370.273 211.239 370.614 211.15 370.94C210.918 371.795 205.405 391.976 199.61 399.276C195.719 404.174 176.907 407.115 161.075 407.774C158.746 407.868 156.045 407.936 153.078 407.936ZM110.246 357.139C100.217 357.139 96.1514 358.599 94.524 359.91C93.745 360.54 93.648 361.072 93.6598 361.554C93.9509 373.502 96.9291 382.975 99.3761 388.819C100.422 391.36 102.4 393.408 104.906 394.542C137.972 409.381 191.77 401.012 195.647 396.133C199.392 391.419 203.565 378.902 205.557 372.129C198.468 370.484 177.686 365.79 155.933 362.117C133.799 358.379 119.49 357.139 110.246 357.139Z" fill="#124F35"/>
<path d="M240.157 300.411C234.33 324.049 222.374 352.782 216.794 365.593C215.883 367.677 214.448 369.489 212.628 370.855C210.808 372.221 208.665 373.094 206.407 373.388C155.888 380.066 113.753 373.23 92.7615 366.121C85.4977 363.667 80.7622 361.176 79.085 359.206C72.3339 351.267 74.6406 326.488 74.6406 326.488C74.6406 326.488 81.254 301.227 81.6081 269.275C81.9622 237.324 92.212 205.601 92.212 205.601L92.2199 205.593L111.129 198.737C111.129 198.737 161.454 206.654 200.681 216.752C221.847 222.201 239.787 228.286 244.854 234.104C248.968 238.831 250.992 243.688 251.592 248.95C253.11 262.173 245.7 277.921 240.157 300.411Z" fill="white"/>
<path d="M251.592 248.95L250.681 249.361C223.393 255.662 120.273 234.104 92.212 205.601L92.2198 205.593L111.129 198.737C111.129 198.737 230.398 217.503 244.854 234.104C248.969 238.831 250.992 243.688 251.592 248.95Z" fill="#0B6B44"/>
<g opacity="0.3">
<path d="M240.157 300.411C234.33 324.049 222.374 352.782 216.794 365.593C215.883 367.677 214.448 369.489 212.628 370.855C210.808 372.221 208.665 373.094 206.407 373.388C155.888 380.066 113.753 373.23 92.7615 366.121C181.721 344.027 192.21 245.089 192.21 245.089C205.337 232.978 176.409 223.999 176.409 223.999L200.681 216.752C221.847 222.201 239.787 228.286 244.854 234.104C248.968 238.831 250.992 243.687 251.592 248.95C253.11 262.173 245.7 277.921 240.157 300.411Z" fill="#0B6B44"/>
</g>
<g opacity="0.2">
<path d="M134.527 212.007L125.709 224.6C125.709 224.6 157.029 236.99 157.029 236.268V218.833" fill="white"/>
</g>
<g opacity="0.6">
<path d="M249.076 240.356C248.736 239.91 248.368 239.469 247.985 239.022C233.528 222.421 114.259 203.656 114.259 203.656L95.3488 210.512V210.52C95.3488 210.52 85.1055 242.241 84.7449 274.193C84.3843 306.146 77.7762 331.407 77.7762 331.407C77.7762 331.407 76.0556 349.87 79.9308 360.018C79.6267 359.772 79.3458 359.499 79.0915 359.202C72.3404 351.263 74.6472 326.484 74.6472 326.484C74.6472 326.484 81.2605 301.223 81.6146 269.271C81.9687 237.32 92.2185 205.597 92.2185 205.597L92.2264 205.59L111.135 198.733C111.135 198.733 230.404 217.499 244.861 234.1C246.64 236.166 248.036 238.231 249.076 240.356Z" fill="white"/>
</g>
<path d="M165.179 378.652C146.356 378.652 130.729 376.925 119.28 375.037C98.3716 371.592 81.4441 365.886 77.1585 360.843C69.9314 352.338 71.8788 328.9 72.1253 326.255C72.1377 326.119 72.1614 325.983 72.1962 325.851C72.2617 325.6 78.7335 300.489 79.0836 269.246C79.4416 237.282 89.7059 205.148 89.8069 204.822C89.9254 204.456 90.1261 204.122 90.3936 203.845C90.661 203.568 90.9883 203.355 91.3504 203.223L110.265 196.359C110.667 196.213 111.099 196.171 111.522 196.238C111.821 196.285 141.771 201.017 173.1 207.721C216.216 216.946 240.312 225.032 246.764 232.441C258.789 246.25 254.341 260.939 248.185 281.27C246.408 287.14 244.393 293.794 242.613 301.013C236.654 325.189 224.193 354.932 219.113 366.598C218.022 369.077 216.31 371.234 214.143 372.862C211.976 374.49 209.426 375.534 206.739 375.895C192.961 377.723 179.078 378.645 165.179 378.652ZM77.1414 326.916C76.5395 333.677 76.0923 351.796 81.0114 357.574C83.4886 360.489 97.253 366.286 120.1 370.052C138.84 373.141 168.965 375.792 206.074 370.883C207.896 370.64 209.625 369.932 211.094 368.83C212.564 367.727 213.725 366.266 214.467 364.586C219.496 353.038 231.827 323.61 237.694 299.81C239.506 292.461 241.542 285.741 243.333 279.811C249.234 260.332 253.128 247.468 242.94 235.761C231.65 222.798 144.782 206.623 111.373 201.334L94.2512 207.548C92.4415 213.538 84.4446 241.52 84.1325 269.303C83.7994 299.662 77.7775 324.388 77.1414 326.916Z" fill="#124F35"/>
<path d="M220.279 332.444C220.279 332.444 209.436 349.405 189.199 352.111C168.961 354.818 176.549 328.473 176.549 328.473C176.549 328.473 182.874 320.715 187.392 314.4C191.909 308.084 188.114 303.459 200.041 307.305C211.969 311.151 224.616 322.699 220.279 332.444Z" fill="#83AA9B"/>
<path d="M186.406 354.834C182.056 354.834 178.649 353.436 176.25 350.662C169.778 343.172 173.934 328.401 174.115 327.776C174.209 327.448 174.369 327.143 174.585 326.879C174.648 326.801 180.912 319.107 185.33 312.93C186.441 311.377 186.968 309.919 187.428 308.629C188.113 306.729 188.889 304.576 191.382 303.719C193.387 303.028 196.031 303.361 200.812 304.897C210.262 307.945 219.087 315.044 222.271 322.162C224.024 326.081 224.133 329.99 222.586 333.465C222.534 333.58 222.474 333.692 222.407 333.799C221.938 334.531 210.689 351.781 189.528 354.611C188.493 354.754 187.45 354.828 186.406 354.834ZM178.847 329.651C177.828 333.549 176.355 343.058 180.086 347.366C181.868 349.424 184.737 350.156 188.86 349.608C206.646 347.228 216.924 332.881 218.046 331.234C218.922 329.12 218.79 326.763 217.652 324.227C215.05 318.413 207.314 312.311 199.257 309.709C194.046 308.029 193.094 308.456 192.998 308.508C192.791 308.673 192.429 309.676 192.19 310.342C191.666 311.782 190.961 313.746 189.444 315.87C185.533 321.338 180.226 327.944 178.847 329.651Z" fill="#124F35"/>
<path d="M291.839 127.283L277.578 214.622C277.578 214.622 272.323 240.245 228.952 235.192C191.083 230.782 145.219 217.56 120.96 207.065C120.873 207.029 120.815 207.008 120.779 206.993C120.765 206.993 120.757 206.985 120.743 206.979C117.309 205.491 114.317 204.055 111.851 202.713C91.9733 191.886 71.7346 176.715 86.914 141.717C102.093 106.718 120.887 70.261 135.706 57.6328C150.524 45.0046 177.992 44.6406 177.992 44.6406C177.992 44.6406 186.305 34.1756 205.337 36.5784C221.561 38.6355 253.71 52.9123 267.48 61.7104C267.483 61.7106 267.485 61.7115 267.488 61.7128C267.49 61.7142 267.492 61.716 267.494 61.7182C269.872 63.2411 271.708 64.599 272.807 65.695C276.566 69.4315 278.818 74.4186 279.132 79.7059C279.198 80.5684 279.189 81.4351 279.103 82.296C279.103 82.296 281.525 85.4072 284.264 91.0443C289.695 102.332 292.295 114.769 291.839 127.283Z" fill="white"/>
<g opacity="0.6">
<path d="M277.528 72.7489C276.817 71.7505 276.024 70.8136 275.157 69.948C267.682 62.4921 226.726 43.2434 207.687 40.8393C188.648 38.4352 180.342 48.9015 180.342 48.9015L168.056 63.4061C168.056 63.4061 158.71 75.8457 175.112 87.2181C174.541 86.9942 157.648 80.0935 161.736 68.0624C164.063 61.2049 169.629 54.168 174.063 49.3113C165.063 50.2135 148.452 53.0354 138.057 61.8911C123.238 74.5219 104.446 110.971 89.2653 145.968C82.4644 161.645 82.7752 173.345 86.9743 182.455C80.715 172.79 79.0089 159.943 86.9166 141.71C102.093 106.713 120.887 70.261 135.706 57.6328C150.524 45.0046 177.992 44.6406 177.992 44.6406C177.992 44.6406 186.305 34.1756 205.337 36.5784C224.369 38.9812 265.333 58.2312 272.807 65.695C274.838 67.7067 276.443 70.1055 277.528 72.7489Z" fill="white"/>
</g>
<path d="M96.4373 120.656C82.3005 148.458 98.8411 164.454 98.8411 164.454C121.249 192.241 199.316 213.533 223.893 209.564C248.47 205.595 246.301 200.18 259.088 151.473C271.876 102.766 239.686 93.5689 239.686 93.5689C209.824 104.745 156.675 91.1896 160.499 69.2959C132.707 59.6729 123.629 71.6529 123.629 71.6529L96.4373 120.656Z" fill="#0B6B44"/>
<path d="M259.087 151.476C246.301 200.187 248.465 205.593 223.893 209.564C199.321 213.534 121.249 192.241 98.8411 164.454C98.8411 164.454 97.792 163.443 96.4557 161.48C120.866 188.293 195.81 208.481 219.794 204.605C244.37 200.635 242.203 195.221 254.989 146.517C260.982 123.688 257.1 109.541 251.274 100.949C258.971 108.618 266.418 123.555 259.087 151.476Z" fill="#199965"/>
<path d="M239.858 238.38C236.115 238.368 232.375 238.139 228.659 237.694C186.541 232.788 131.615 216.35 110.641 204.924C100.913 199.633 90.1479 192.824 84.0591 182.562C77.211 171.017 77.3854 157.325 84.5928 140.708C95.598 115.332 116.66 70.545 134.063 55.7105C147.856 43.9544 171.403 42.3542 176.849 42.1473C179.529 39.4355 188.639 31.9246 205.657 34.0747C225.328 36.5626 266.793 56.1177 274.594 63.9062C276.915 66.2098 278.742 68.9617 279.962 71.9939C281.182 75.0261 281.771 78.2748 281.691 81.5417C284.407 85.3731 295.249 102.308 294.367 127.372C294.364 127.479 294.354 127.585 294.336 127.69L280.074 215.029C280.074 215.062 280.064 215.096 280.056 215.129C279.996 215.425 278.482 222.454 271.178 228.718C263.674 235.143 253.166 238.38 239.858 238.38ZM199.749 38.7454C186.231 38.7454 180.242 45.8832 179.965 46.2223C179.73 46.5109 179.435 46.7449 179.1 46.908C178.766 47.071 178.399 47.1592 178.027 47.1664C177.765 47.1664 151.285 47.6745 137.349 59.5536C120.722 73.727 100.067 117.741 89.2351 142.716C74.7337 176.151 93.9312 190.069 113.063 200.489C133.63 211.69 187.681 227.834 229.246 232.676C269.069 237.313 274.758 215.596 275.092 214.14L289.317 127.035C290.18 100.919 277.242 84.0126 277.111 83.845C276.906 83.5822 276.754 83.2814 276.666 82.96C276.578 82.6386 276.554 82.303 276.597 81.9725C276.633 81.6582 277.462 73.9155 271.015 67.4783C263.803 60.2765 223.488 41.4206 205.022 39.0872C203.273 38.8632 201.512 38.749 199.749 38.7454Z" fill="#124F35"/>
<path d="M214.498 100.204C204.689 100.204 195.358 99.1456 187.316 97.0728C173.021 93.3894 163.317 86.6432 159.243 77.5623C156.723 71.9474 157.717 65.1554 161.774 60.2581L176.043 43.0312C176.47 42.5149 177.086 42.1895 177.754 42.1264C178.422 42.0632 179.088 42.2677 179.605 42.6947C180.122 43.1216 180.448 43.7362 180.511 44.4032C180.574 45.0701 180.369 45.7348 179.942 46.2511L165.672 63.478C162.835 66.9061 162.122 71.6227 163.861 75.4973C171.511 92.5487 202.154 97.2588 229.124 94.3531C234.405 93.788 239.352 91.5002 243.199 87.8439L257.806 73.8539C257.862 73.7989 257.922 73.7466 257.984 73.6968C258.089 73.6143 268.58 65.5966 281.065 80.6839C281.281 80.939 281.445 81.2345 281.547 81.5533C281.648 81.8721 281.685 82.2079 281.656 82.5411C281.626 82.8744 281.531 83.1984 281.375 83.4945C281.219 83.7906 281.005 84.0527 280.747 84.2658C280.489 84.4789 280.191 84.6386 279.87 84.7357C279.55 84.8328 279.213 84.8653 278.879 84.8314C278.546 84.7975 278.223 84.6978 277.929 84.5381C277.634 84.3784 277.374 84.1619 277.164 83.9012C268.391 73.2948 262.009 77.0607 261.186 77.6159L246.698 91.4894C242.045 95.9194 236.058 98.6937 229.666 99.3827C224.628 99.9259 219.565 100.2 214.498 100.204Z" fill="#124F35"/>
<path d="M123.628 73.8069C123.225 73.8075 122.831 73.696 122.488 73.4851C122.146 73.2741 121.869 72.9719 121.689 72.6126C121.509 72.2532 121.433 71.8508 121.47 71.4507C121.506 71.0505 121.653 70.6684 121.895 70.3474C122.305 69.8079 132.255 57.2334 161.206 67.2558C161.484 67.341 161.742 67.4813 161.964 67.6681C162.187 67.855 162.37 68.0847 162.502 68.3435C162.633 68.6024 162.712 68.885 162.732 69.1748C162.752 69.4645 162.714 69.7552 162.619 70.0298C162.524 70.3044 162.375 70.5571 162.181 70.773C161.986 70.9888 161.75 71.1634 161.486 71.2862C161.223 71.4091 160.937 71.4777 160.647 71.4881C160.356 71.4984 160.066 71.4503 159.795 71.3465C134.091 62.4423 125.436 72.8733 125.348 72.9806C125.143 73.2392 124.881 73.4479 124.583 73.591C124.285 73.7341 123.958 73.8079 123.628 73.8069Z" fill="#124F35"/>
<g opacity="0.2">
<path d="M110.701 185.149C106.884 183.637 104.501 179.802 104.548 175.7C104.601 171.085 105.874 164.615 112.032 161.69C122.152 156.877 127.393 163.854 125.225 171.282C123.443 177.382 118.735 188.333 110.701 185.149Z" fill="white"/>
</g>
<path d="M216.947 212.204C203.052 212.204 181.467 208.034 159.879 200.976C130.287 191.302 107.462 178.524 97.2254 165.903C96.512 165.178 92.5897 160.956 90.275 153.635C87.9932 146.433 86.8746 134.692 94.5082 119.676C94.7691 119.164 95.223 118.777 95.7701 118.599C96.0409 118.511 96.3265 118.477 96.6106 118.499C96.8946 118.521 97.1715 118.599 97.4254 118.728C97.6794 118.857 97.9054 119.034 98.0905 119.25C98.2757 119.467 98.4164 119.717 98.5047 119.988C98.5929 120.258 98.6269 120.543 98.6047 120.827C98.5826 121.11 98.5047 121.387 98.3755 121.64C85.1763 147.579 99.7328 162.289 100.354 162.903C100.417 162.964 100.475 163.028 100.53 163.096C110.219 175.11 132.342 187.416 161.228 196.86C186.099 204.99 211.725 209.333 223.545 207.425C243.513 204.2 244.378 200.762 252.658 167.867C253.907 162.905 255.323 157.279 256.986 150.925C262.006 131.807 260.491 116.195 252.61 105.775C246.689 97.9502 239.155 95.6757 239.08 95.6534C238.528 95.4947 238.061 95.1233 237.782 94.6209C237.504 94.1184 237.437 93.5262 237.596 92.9743C237.755 92.4225 238.127 91.9563 238.63 91.6783C239.133 91.4004 239.726 91.3334 240.279 91.4921C240.636 91.5942 249.093 94.0887 255.899 102.94C262.077 110.976 268.01 126.014 261.181 152.022C259.518 158.356 258.106 163.971 256.854 168.923C248.517 202.051 247.018 208.021 224.23 211.701C222.15 212.039 219.698 212.204 216.947 212.204Z" fill="#124F35"/>
<path d="M126.485 87.4956C126.485 87.4956 134.323 73.5109 142.059 81.5704C149.795 89.63 160.037 108.757 192.084 113.087C224.13 117.418 231.117 108.517 240.755 117.419C250.392 126.32 246.538 144.845 242.441 160.003C238.345 175.161 235.936 194.166 216.419 194.406C196.903 194.645 124.859 179.193 105.824 149.63C105.824 149.63 98.4254 142.057 109.81 117.517C109.814 117.517 118.538 99.4049 126.485 87.4956Z" fill="#199965"/>
<g opacity="0.3">
<path d="M242.448 160C238.35 175.157 235.942 194.169 216.426 194.406C197.184 194.644 126.858 179.617 106.662 150.855C131.469 175.85 193.629 188.848 211.546 188.634C231.062 188.395 233.47 169.385 237.568 154.227C241.053 141.323 244.364 125.985 239.325 116.212C239.795 116.573 240.272 116.97 240.756 117.418C250.399 126.323 246.539 144.842 242.448 160Z" fill="#26CE92"/>
</g>
<g opacity="0.3">
<path d="M291.839 127.283L277.578 214.622C277.578 214.622 272.323 240.245 228.952 235.192C191.083 230.782 145.219 217.56 120.96 207.065C125.991 209.079 216.101 244.567 246.785 215.105C278.345 184.792 276.898 134.745 274.007 117.906C271.115 101.067 272.807 84.4669 284.127 90.963C284.17 90.9918 284.213 91.0128 284.258 91.0495C289.69 102.335 292.292 114.77 291.839 127.283Z" fill="#124F35"/>
</g>
<path d="M304.222 177.352C302.48 195.126 288.361 207.287 273.405 205.413C258.448 203.539 248.77 188.579 250.997 170.859C253.224 153.14 266.209 140.088 281.173 141.875C297.26 143.792 306.116 158.048 304.222 177.352Z" fill="#26CE92"/>
<g opacity="0.3">
<path d="M304.222 177.352C302.48 195.128 288.362 207.289 273.405 205.413C264.528 204.301 257.509 198.577 253.734 190.408C257.236 193.29 261.488 195.115 265.993 195.669C280.943 197.546 295.065 185.384 296.81 167.607C297.576 159.768 296.578 152.76 294.042 147.08C301.749 153.208 305.523 164.086 304.222 177.352Z" fill="#124F35"/>
</g>
<g opacity="0.48">
<path d="M254.854 161.807C259.88 154.33 268.467 156.634 267.383 165.897C267.383 165.897 265.336 172.393 265.456 179.008C263.287 186.828 251.733 185.855 250.699 176.965" fill="white"/>
</g>
<path d="M276.447 208.129C275.325 208.128 274.204 208.058 273.091 207.919C265.109 206.92 258.199 202.491 253.637 195.451C249.166 188.553 247.342 179.707 248.488 170.544C250.926 151.147 265.412 137.456 281.476 139.368C298.629 141.412 308.782 156.775 306.74 177.603C305.788 187.32 301.181 196.134 294.102 201.782C288.899 205.929 282.733 208.129 276.447 208.129ZM278.489 144.244C266.2 144.244 255.469 155.574 253.51 171.176C252.506 179.164 254.06 186.807 257.884 192.709C261.622 198.47 267.245 202.097 273.722 202.909C279.772 203.669 285.891 201.862 290.945 197.833C296.963 193.031 300.884 185.477 301.705 177.108C303.485 158.951 295.309 146.107 280.876 144.387C280.084 144.292 279.287 144.244 278.489 144.244Z" fill="#1B3D30"/>
<path d="M284.005 203.168C283.297 203.169 282.589 203.125 281.887 203.037C270.084 201.56 262.67 188.704 264.626 173.133C266.593 157.444 277.162 146.222 288.688 147.586C301.189 149.065 308.145 161.073 306.409 178.175C305.546 186.676 301.736 194.188 295.957 198.784C292.352 201.642 288.18 203.168 284.005 203.168ZM286.773 151.802C278.2 151.802 270.512 161.06 268.929 173.669C267.28 186.791 273.083 197.568 282.427 198.739C286.168 199.207 289.914 198.05 293.255 195.393C298.126 191.52 301.348 185.084 302.093 177.735C303.568 163.201 298.106 153.059 288.178 151.884C287.712 151.827 287.243 151.797 286.773 151.795V151.802Z" fill="#1B3D30"/>
<g opacity="0.2">
<path d="M143.476 85.0575C143.476 85.0575 149.921 77.4785 157.874 82.5303C162.357 85.3796 168.775 89.3878 156.849 108.515C148.233 122.331 141.598 137.748 138.096 147.692C136.01 153.626 129.626 156.972 123.583 155.2C117.778 153.498 112.546 149.497 115.101 140.287C120.164 122.05 143.476 85.0575 143.476 85.0575Z" fill="white"/>
</g>
<path d="M215.956 196.574C194.86 196.574 123.529 180.81 104.095 150.949C102.725 149.361 96.7508 140.509 107.839 116.607C108.211 115.834 116.702 98.2592 124.634 86.359C125.308 85.1805 129.769 77.7482 135.902 76.9665C137.83 76.7216 140.734 77.0594 143.623 80.0698C144.942 81.4434 146.331 83.126 147.802 84.9147C155.206 93.883 166.396 107.437 192.371 110.946C206.888 112.91 216.157 112.112 222.927 111.53C230.993 110.838 236.321 110.379 242.225 115.833C252.352 125.185 249.318 142.861 244.533 160.57C244.094 162.195 243.682 163.834 243.245 165.571C239.622 179.993 235.508 196.342 216.443 196.575L215.956 196.574ZM136.933 81.2339C136.774 81.234 136.616 81.2445 136.458 81.2653C132.949 81.7118 129.361 86.8042 128.382 88.5536C128.354 88.6021 128.325 88.6505 128.294 88.6964C120.517 100.35 111.854 118.276 111.77 118.456C101.371 140.871 107.36 148.087 107.422 148.158C107.511 148.248 107.589 148.349 107.655 148.458C125.802 176.643 196.067 192.244 215.956 192.244H216.398C232.129 192.05 235.49 178.675 239.048 164.515C239.47 162.838 239.905 161.103 240.359 159.441C244.576 143.831 247.749 126.821 239.293 119.011C234.795 114.856 231.196 115.165 223.311 115.844C216.341 116.442 206.795 117.262 191.803 115.236C164.145 111.499 152.304 97.1579 144.462 87.6685C142.983 85.8758 141.708 84.3281 140.499 83.0724C139.317 81.8376 138.145 81.2339 136.933 81.2339Z" fill="#0D7048"/>
<path d="M117.459 121.352C117.688 121.714 117.995 122.02 118.356 122.25C118.718 122.48 119.126 122.627 119.551 122.681C119.976 122.735 120.408 122.695 120.816 122.563C121.224 122.431 121.597 122.211 121.91 121.918C129.558 114.924 140.972 116.363 141.733 129.891C141.756 130.282 141.858 130.664 142.033 131.014C142.208 131.364 142.453 131.675 142.752 131.928C143.051 132.181 143.398 132.371 143.773 132.486C144.147 132.601 144.542 132.639 144.931 132.598L145.67 132.519C147.359 132.34 148.493 130.981 148.401 129.428C147.205 109.375 128.132 106.035 117.699 117.953C117.3 118.42 117.062 119.001 117.018 119.613C116.975 120.225 117.13 120.835 117.459 121.352Z" fill="#43D69E"/>
<path d="M193.697 150.791L194.008 151.094C194.282 151.362 194.606 151.573 194.962 151.716C195.319 151.858 195.699 151.929 196.083 151.925C196.467 151.92 196.846 151.84 197.199 151.689C197.551 151.538 197.871 151.319 198.139 151.045C204.867 144.085 215.235 146.521 215.842 158.845C215.871 159.605 216.191 160.323 216.737 160.853C217.283 161.382 218.013 161.68 218.773 161.686H220.434C220.826 161.687 221.215 161.609 221.577 161.457C221.939 161.305 222.266 161.082 222.54 160.801C222.813 160.52 223.028 160.187 223.17 159.821C223.312 159.456 223.379 159.066 223.367 158.674C222.616 138.912 203.959 135.333 193.558 146.724C193.049 147.288 192.779 148.027 192.805 148.786C192.831 149.544 193.151 150.263 193.697 150.791Z" fill="#43D69E"/>
<g opacity="0.3">
<path d="M279.132 79.7045C274.997 76.0669 269.41 72.7095 264.133 74.5978C254.013 78.2066 245.982 93.6526 229.393 96.8791C212.804 100.106 182.206 92.8945 182.206 92.8945L175.125 89.1194C175.125 89.1194 213.286 97.6949 231.121 87.1055C248.956 76.5161 252.148 66.0524 260.274 65.5613C268.399 65.0703 267.486 61.7142 267.486 61.7142C267.489 61.7145 267.492 61.7153 267.494 61.7167C267.497 61.718 267.499 61.7199 267.501 61.7221C269.878 63.245 271.714 64.6028 272.813 65.6988C276.569 69.4351 278.818 74.42 279.132 79.7045Z" fill="#124F35"/>
</g>
<g opacity="0.68">
<path d="M191.127 362.576C191.127 362.576 157.63 367.391 120.96 358.246C89.104 350.299 86.2635 334.545 86.0681 330.551C86.0493 330.239 86.0493 329.926 86.0681 329.614L89.3217 316.868L99.8024 310.714C99.8024 310.714 154.015 308.44 174.501 311.328C174.995 311.399 175.485 311.498 175.968 311.624C194.798 316.565 191.127 362.576 191.127 362.576Z" fill="#26CE92"/>
</g>
<path d="M168.759 366.396C155.784 366.396 138.523 365.228 120.347 360.697C82.012 351.138 83.4676 330.269 83.5489 329.385C83.607 328.717 83.9283 328.1 84.442 327.669C84.9558 327.238 85.62 327.029 86.2884 327.087C86.9569 327.145 87.5749 327.465 88.0066 327.978C88.4382 328.491 88.648 329.155 88.5899 329.822C88.5375 330.592 87.8162 347.38 121.573 355.796C152.246 363.442 181.007 361.149 188.74 360.317C189.527 346.307 188.261 315.822 174.148 313.833C155.301 311.177 106.644 312.979 100.539 313.218L90.6042 319.043C90.3176 319.214 89.9999 319.327 89.6694 319.375C89.3389 319.423 89.0022 319.405 88.6786 319.322C88.3551 319.24 88.0511 319.094 87.7843 318.893C87.5175 318.693 87.293 318.441 87.124 318.154C86.9549 317.866 86.8445 317.548 86.7992 317.218C86.754 316.887 86.7746 316.551 86.8601 316.229C86.9455 315.907 87.0941 315.604 87.2971 315.34C87.5001 315.075 87.7537 314.853 88.0431 314.686L98.5238 308.541C98.8829 308.331 99.2882 308.212 99.704 308.195C101.933 308.104 154.389 305.943 174.86 308.831C197.441 312.012 193.816 360.706 193.651 362.779C193.605 363.351 193.366 363.89 192.973 364.307C192.58 364.725 192.057 364.997 191.488 365.079C190.783 365.178 182.006 366.396 168.759 366.396Z" fill="#124F35"/>
<path d="M174.501 300.743V311.328L145.587 329.61C138.944 318.733 132.973 321.721 127.516 335.023L125.586 338.517C123.164 334.515 120.403 330.729 117.332 327.199C112.358 321.569 105.809 316.135 99.5637 317.102C96.6432 317.557 94.3522 318.488 92.5516 319.649C86.7041 323.424 86.0681 329.61 86.0681 329.61L35.8168 315.861C34.334 315.455 33.0257 314.574 32.0932 313.354C31.1606 312.133 30.6554 310.641 30.6551 309.106V301.938L28.8402 301.231C28.487 301.094 28.1461 300.928 27.8212 300.733H27.8147C26.9108 300.215 26.1238 299.516 25.503 298.68C24.8822 297.844 24.441 296.889 24.207 295.875L10.1122 235.15C8.91878 230.025 13.5454 225.45 18.6638 226.683L103.495 247.131C106.093 247.757 108.438 249.159 110.216 251.15C111.995 253.141 113.123 255.627 113.45 258.275L116.717 284.713L174.501 300.743Z" fill="#B5B8C9"/>
<g opacity="0.6">
<path d="M113.45 258.275L113.782 260.989C113.082 258.873 111.853 256.97 110.211 255.461C108.569 253.951 106.569 252.885 104.399 252.364L19.5673 231.916C15.1571 230.855 11.1167 234.104 10.8426 238.297L10.1122 235.154C8.91878 230.029 13.5454 225.454 18.6638 226.687L103.495 247.135C106.092 247.761 108.437 249.162 110.215 251.152C111.994 253.143 113.122 255.627 113.45 258.275Z" fill="white"/>
</g>
<g opacity="0.6">
<path d="M174.501 299.481V304.461L117.62 288.684L116.984 283.523L174.501 299.481Z" fill="white"/>
</g>
<path d="M125.586 341.052C125.143 341.052 124.709 340.936 124.325 340.716C123.942 340.496 123.623 340.18 123.4 339.799C119.85 333.722 108.725 318.245 99.9519 319.608C89.5918 321.218 88.5939 329.791 88.5847 329.877C88.5472 330.242 88.4306 330.595 88.2429 330.91C88.0552 331.226 87.801 331.497 87.4979 331.704C87.1947 331.912 86.85 332.051 86.4876 332.112C86.1252 332.173 85.7538 332.154 85.3993 332.057L35.1467 318.308C33.1324 317.751 31.3563 316.55 30.0894 314.89C28.8226 313.23 28.1347 311.202 28.1307 309.115V303.673L27.9235 303.593C26.3909 302.995 25.0275 302.032 23.9514 300.789C22.8753 299.546 22.1191 298.06 21.7482 296.459L7.64674 235.72C7.27581 234.126 7.31936 232.464 7.77325 230.892C8.22714 229.32 9.07627 227.89 10.2399 226.739C11.4035 225.587 12.8429 224.752 14.4211 224.312C15.9993 223.873 17.6639 223.844 19.2565 224.228L104.089 244.677C107.182 245.433 109.973 247.108 112.092 249.481C114.211 251.854 115.56 254.813 115.96 257.967L119.021 282.733L175.177 298.316C175.71 298.463 176.18 298.781 176.515 299.221C176.849 299.661 177.03 300.198 177.03 300.75V311.328C177.03 311.754 176.922 312.173 176.715 312.546C176.509 312.92 176.211 313.235 175.85 313.462L146.943 331.755C146.659 331.934 146.343 332.056 146.011 332.112C145.68 332.168 145.341 332.157 145.014 332.081C144.687 332.004 144.379 331.864 144.107 331.667C143.835 331.47 143.604 331.222 143.43 330.935C141.219 327.316 139.113 325.392 137.511 325.521C136.462 325.604 133.635 326.789 129.86 335.996C129.821 336.086 129.777 336.173 129.728 336.258L127.797 339.742C127.582 340.134 127.266 340.462 126.882 340.692C126.498 340.923 126.06 341.047 125.612 341.052H125.586ZM121.793 328.544C123.217 330.354 124.44 332.08 125.409 333.52C128.994 324.984 132.72 320.838 137.108 320.49C140.348 320.228 143.379 322.094 146.327 326.167L171.971 309.953V302.675L119.692 288.161L124.333 325.701C124.374 326.031 124.35 326.365 124.261 326.684C124.173 327.004 124.022 327.303 123.818 327.565C123.613 327.827 123.359 328.045 123.07 328.209C122.781 328.372 122.463 328.477 122.133 328.518C122.02 328.531 121.907 328.537 121.793 328.537V328.544ZM16.9629 229.005C16.2817 229.012 15.6109 229.172 14.9998 229.473C14.3887 229.773 13.8529 230.207 13.432 230.742C13.011 231.276 12.7156 231.899 12.5675 232.563C12.4194 233.227 12.4224 233.915 12.5763 234.578L26.6711 295.318C26.8571 296.119 27.2356 296.863 27.7739 297.485C28.3122 298.107 28.9942 298.588 29.7608 298.888L31.5771 299.596C32.0516 299.782 32.4591 300.106 32.7459 300.527C33.0328 300.947 33.1858 301.444 33.1848 301.953V309.119C33.1861 310.1 33.5095 311.054 34.1054 311.834C34.7013 312.615 35.5369 313.179 36.4843 313.44L84.2046 326.492C85.7311 321.982 89.9958 316.043 99.1755 314.617C106.546 313.472 113.816 319.353 119.202 325.435L114.207 285.039C114.207 285.036 114.207 285.033 114.207 285.03L110.94 258.591C110.669 256.456 109.756 254.453 108.322 252.847C106.887 251.241 104.999 250.107 102.905 249.594L18.071 229.148C17.7087 229.056 17.3367 229.008 16.9629 229.005Z" fill="#124F35"/>
<path d="M93.1142 321.838C92.8846 321.839 92.656 321.808 92.4349 321.746L29.9771 304.388C29.3308 304.208 28.7823 303.78 28.4523 303.196C28.1224 302.613 28.0381 301.923 28.2179 301.277C28.3977 300.632 28.827 300.084 29.4112 299.755C29.9954 299.425 30.6867 299.341 31.3331 299.521L93.7909 316.884C94.3807 317.047 94.8913 317.418 95.228 317.928C95.5647 318.438 95.7048 319.053 95.6221 319.659C95.5395 320.264 95.2399 320.819 94.7788 321.221C94.3176 321.623 93.7262 321.844 93.1142 321.844V321.838Z" fill="#124F35"/>
<path d="M122.945 329.015C122.375 329.015 121.822 328.823 121.375 328.47C120.928 328.117 120.614 327.624 120.482 327.07C120.351 326.517 120.411 325.935 120.652 325.419C120.893 324.904 121.301 324.485 121.81 324.229L173.376 298.483C173.673 298.335 173.996 298.246 174.328 298.223C174.659 298.199 174.992 298.241 175.307 298.346C175.622 298.451 175.914 298.617 176.165 298.834C176.416 299.051 176.621 299.316 176.77 299.613C176.919 299.909 177.007 300.233 177.031 300.563C177.054 300.894 177.013 301.227 176.908 301.541C176.803 301.856 176.636 302.147 176.419 302.398C176.201 302.648 175.936 302.854 175.639 303.002L124.067 328.743C123.719 328.919 123.335 329.012 122.945 329.015Z" fill="#124F35"/>
<g opacity="0.6">
<path d="M50.6657 265.137L49.5864 257.598C49.5686 257.311 49.6361 257.026 49.7805 256.778L52.3391 252.644C52.4445 252.463 52.6033 252.32 52.7937 252.233C52.9841 252.146 53.1968 252.12 53.4026 252.158L66.8588 254.852C67.0236 254.883 67.1788 254.952 67.3117 255.054C67.4446 255.156 67.5514 255.288 67.6234 255.44L70.3353 260.154C70.4639 260.424 70.5396 260.717 70.5583 261.016L71.6074 269.604C71.617 269.766 71.5888 269.928 71.525 270.077C71.4613 270.226 71.3637 270.358 71.24 270.463C71.1163 270.569 70.9698 270.644 70.8122 270.682C70.6545 270.721 70.4899 270.723 70.3314 270.688L51.7948 266.46C51.4892 266.39 51.2144 266.223 51.011 265.985C50.8076 265.747 50.6865 265.45 50.6657 265.137Z" fill="white"/>
</g>
<path d="M49.5812 263.693L48.5019 256.155C48.4838 255.868 48.5513 255.583 48.696 255.335L51.2545 251.2C51.3601 251.019 51.519 250.876 51.7094 250.789C51.8998 250.703 52.1124 250.677 52.3181 250.715L65.7743 253.409C65.9391 253.44 66.0943 253.509 66.2272 253.611C66.36 253.713 66.4668 253.845 66.5388 253.997L69.2508 258.711C69.3796 258.981 69.4552 259.274 69.4737 259.574L70.5228 268.161C70.5322 268.323 70.5039 268.484 70.44 268.633C70.3762 268.782 70.2786 268.915 70.1549 269.02C70.0312 269.125 69.8849 269.199 69.7273 269.238C69.5697 269.277 69.4053 269.279 69.2469 269.244L50.7103 265.016C50.4046 264.946 50.1297 264.779 49.9262 264.541C49.7228 264.303 49.6018 264.005 49.5812 263.693Z" fill="#124F35"/>
<path d="M120.827 319.746C120.415 319.746 120.015 319.605 119.695 319.347C119.374 319.089 119.151 318.73 119.062 318.329C118.974 317.927 119.025 317.507 119.208 317.139C119.39 316.77 119.694 316.475 120.067 316.302L132.132 310.738L118.363 305.171C118.138 305.085 117.932 304.956 117.758 304.79C117.584 304.625 117.445 304.426 117.348 304.206C117.252 303.985 117.201 303.748 117.198 303.508C117.195 303.268 117.239 303.03 117.33 302.807C117.42 302.584 117.554 302.382 117.724 302.212C117.893 302.041 118.095 301.907 118.318 301.815C118.54 301.724 118.779 301.678 119.019 301.68C119.26 301.682 119.497 301.732 119.718 301.826L137.349 308.958C137.676 309.09 137.956 309.314 138.157 309.604C138.357 309.893 138.469 310.235 138.477 310.586C138.486 310.938 138.391 311.285 138.205 311.584C138.018 311.882 137.749 312.12 137.429 312.268L121.583 319.577C121.346 319.688 121.088 319.745 120.827 319.746Z" fill="#124F35"/>
<path d="M129.414 309.111C129.006 309.111 128.611 308.973 128.292 308.721C127.973 308.468 127.748 308.116 127.654 307.72C127.561 307.324 127.604 306.909 127.776 306.54C127.948 306.172 128.24 305.873 128.604 305.69L136.848 301.583L117.248 295.239C116.792 295.091 116.413 294.769 116.195 294.342C115.977 293.916 115.938 293.421 116.086 292.965C116.234 292.51 116.557 292.132 116.984 291.915C117.411 291.697 117.907 291.658 118.363 291.805L142.167 299.51C142.508 299.62 142.809 299.83 143.031 300.112C143.252 300.393 143.385 300.735 143.412 301.092C143.438 301.449 143.358 301.806 143.181 302.118C143.003 302.429 142.737 302.681 142.416 302.841L130.22 308.92C129.97 309.045 129.694 309.111 129.414 309.111Z" fill="#124F35"/>
<g opacity="0.3">
<path d="M120.96 327.448L117.332 327.203C112.358 321.573 105.809 316.139 99.5637 317.106C96.6432 317.561 94.3522 318.492 92.5516 319.653L43.5868 305.543L27.8212 300.744H27.8147L25.5958 295.453C83.0532 315.095 117.707 308.548 110.168 253.591L112.596 258.412L120.96 327.448Z" fill="#124F35"/>
</g>
<g opacity="0.3">
<path d="M82.029 316.204C75.1429 320.026 60.9851 319.815 30.6499 310.631L35.9479 314.587L84.7397 327.448L89.3177 319.873" fill="#124F35"/>
</g>
<g opacity="0.3">
<path d="M172.086 301.948C171.462 302.261 120.272 327.402 120.272 327.402C120.272 327.402 125.465 336.955 125.586 336.593C125.706 336.232 131.73 324.083 131.73 324.083L138.982 323.173L146.18 328.654L174.017 311.573" fill="#124F35"/>
</g>
<g opacity="0.2">
<path d="M34.6746 271.144L27.9314 269.703C27.3543 269.581 26.8258 269.292 26.4108 268.873C25.9958 268.455 25.7125 267.924 25.5958 267.346L21.3377 244.154C21.2264 243.6 21.2567 243.027 21.4258 242.488C21.5949 241.949 21.8973 241.461 22.305 241.07C22.7128 240.678 23.2128 240.396 23.7589 240.248C24.3049 240.101 24.8794 240.093 25.4292 240.225L31.6098 241.72C32.2463 241.873 32.8243 242.207 33.2735 242.683C33.7227 243.158 34.0236 243.754 34.1395 244.397L37.8272 268.112C37.9012 268.537 37.8697 268.974 37.7355 269.384C37.6012 269.794 37.3683 270.165 37.0571 270.464C36.7459 270.763 36.366 270.982 35.9506 271.1C35.5352 271.219 35.0971 271.234 34.6746 271.144Z" fill="white"/>
</g>
<g opacity="0.2">
<path d="M37.4416 291.606L32.2236 289.773C31.6728 289.579 31.1819 289.245 30.7991 288.805C30.4164 288.364 30.1548 287.832 30.0401 287.26L28.7471 280.844C28.6793 280.509 28.6964 280.163 28.7965 279.836C28.8967 279.51 29.0769 279.213 29.3208 278.974C29.5647 278.734 29.8646 278.559 30.1933 278.465C30.522 278.37 30.8692 278.359 31.2033 278.432L37.9701 279.908C38.7378 280.075 39.4385 280.466 39.9834 281.031C40.5283 281.597 40.8929 282.311 41.0309 283.083L41.8807 287.843C42.3213 290.377 39.8638 292.472 37.4416 291.606Z" fill="white"/>
</g>
<path d="M148.06 329.083L147.144 336.856L143.114 330.144L148.06 329.083Z" fill="#124F35"/>
<g opacity="0.3">
<path d="M191.127 362.576C191.127 362.576 157.63 367.391 120.96 358.246C89.104 350.299 86.2635 334.545 86.0681 330.551C87.7808 326.207 90.3472 323.422 90.3472 323.422C88.7211 328.112 90.7091 334.421 101.733 343.63C112.756 352.839 168.775 359.689 180.161 349.405C191.546 339.12 177.269 319.314 177.269 319.314L146.367 333.237L144.56 328.473L175.968 311.627C194.798 316.565 191.127 362.576 191.127 362.576Z" fill="#124F35"/>
</g>
<path opacity="0.4" d="M178.852 342.909C179.316 346.561 173.886 350.256 166.724 351.158C159.563 352.06 153.381 349.839 152.916 346.182C152.452 342.525 159.867 337.752 167.028 336.845C174.19 335.937 178.388 339.257 178.852 342.909Z" fill="url(#paint0_linear_73_41)"/>
<g opacity="0.3">
<path d="M190.039 329.106L197.63 324.626L186.787 318.551L187.63 321.798" fill="#0B6B44"/>
</g>
<g opacity="0.3">
<path d="M202.44 325.454C202.44 325.454 207.629 338.999 192.211 342.488V350.186C202.276 349.496 210.538 345.08 215.947 334.789" fill="#0B6B44"/>
</g>
<path d="M237.954 252.635C221.479 252.635 196.874 249.041 171.216 242.633C153.044 238.095 108.817 225.552 90.6698 207.122C90.4686 206.919 90.3095 206.679 90.2015 206.415C90.0936 206.151 90.0389 205.868 90.0407 205.583C90.0425 205.297 90.1007 205.015 90.212 204.753C90.3233 204.49 90.4854 204.252 90.6891 204.052C90.8929 203.852 91.1341 203.694 91.3991 203.587C91.6641 203.481 91.9475 203.428 92.2331 203.431C92.5188 203.434 92.801 203.493 93.0636 203.605C93.3262 203.718 93.564 203.881 93.7634 204.085C105.816 216.327 135.164 229.167 172.269 238.433C205.118 246.635 237.163 250.264 250.198 247.254C250.756 247.133 251.339 247.236 251.821 247.541C252.303 247.846 252.646 248.328 252.774 248.883C252.902 249.439 252.806 250.022 252.507 250.507C252.207 250.992 251.728 251.34 251.174 251.475C247.779 252.256 243.29 252.635 237.954 252.635Z" fill="#124F35"/>
<path d="M179.072 312.916L225.345 337.735C225.345 337.735 243.657 314.656 247.994 283.524C252.331 252.393 230.159 247.819 215.471 249.741C200.784 251.663 191.376 273.801 189.689 281.258C188.003 288.715 179.072 312.916 179.072 312.916Z" fill="white"/>
<g opacity="0.3">
<path d="M247.985 283.522C243.648 314.659 225.338 337.732 225.338 337.732L219.201 334.44C221.189 331.828 237.576 309.713 241.645 280.492C243.85 264.657 239.194 255.692 232.155 250.965C242.413 254.255 250.805 263.271 247.985 283.522Z" fill="#0B6B44"/>
</g>
<g opacity="0.6">
<path d="M242.195 257.134C235.376 252.436 226.242 251.793 218.956 252.746C204.252 254.674 194.856 276.81 193.172 284.266C191.69 290.84 184.57 310.429 182.907 314.969L179.072 312.912C179.072 312.912 187.99 288.719 189.683 281.255C191.376 273.791 200.764 251.662 215.459 249.744C224.087 248.606 235.3 249.723 242.195 257.134Z" fill="white"/>
</g>
<path d="M225.337 340.266C224.92 340.266 224.509 340.163 224.141 339.966L177.868 315.146C177.331 314.858 176.915 314.387 176.698 313.817C176.481 313.248 176.478 312.62 176.688 312.048C176.777 311.807 185.575 287.919 187.206 280.707C188.584 274.612 197.885 249.499 215.126 247.243C220.663 246.516 234.515 245.802 243.525 254.875C249.929 261.319 252.272 271.076 250.489 283.875C246.108 315.329 228.083 338.348 227.317 339.309C227.081 339.607 226.78 339.848 226.437 340.014C226.094 340.179 225.718 340.266 225.337 340.266ZM182.192 311.731L224.603 334.48C228.745 328.675 241.947 308.536 245.479 283.18C247.033 272.025 245.167 263.7 239.934 258.432C232.518 250.968 220.575 251.623 215.786 252.249C202.614 253.973 193.724 274.825 192.143 281.817C190.716 288.136 184.406 305.664 182.195 311.72L182.192 311.731Z" fill="#124F35"/>
<path d="M195.807 321.895L207.99 290.519C207.99 290.519 213.954 273.98 225.88 276.687C237.806 279.393 231.301 295.813 226.783 306.099C222.266 316.385 213.801 331.548 213.801 331.548L195.807 321.895Z" fill="#0B6B44"/>
<g opacity="0.3">
<path d="M232.487 283.616C231.625 283.137 230.697 282.789 229.733 282.584C217.806 279.878 211.843 296.42 211.843 296.42L200.891 324.626L195.81 321.899L207.99 290.516C207.99 290.516 213.954 273.98 225.88 276.687C230.015 277.625 231.931 280.209 232.487 283.616Z" fill="#1C4F39"/>
</g>
<path d="M213.801 333.719C213.443 333.717 213.091 333.627 212.776 333.457L194.781 323.804C194.315 323.554 193.957 323.143 193.773 322.647C193.59 322.152 193.594 321.607 193.785 321.114L205.968 289.738C206.219 289.038 212.724 271.482 226.361 274.577C229.752 275.347 232.171 277.123 233.551 279.855C236.905 286.488 233.233 296.806 228.774 306.969C224.267 317.229 215.791 332.45 215.701 332.602C215.513 332.941 215.238 333.223 214.903 333.42C214.569 333.616 214.188 333.719 213.801 333.719ZM198.521 320.898L212.939 328.632C215.326 324.273 221.299 313.199 224.798 305.235C227.124 299.938 232.57 287.537 229.678 281.808C228.899 280.263 227.498 279.281 225.4 278.804C215.5 276.56 210.083 291.113 210.029 291.261L198.521 320.898Z" fill="#124F35"/>
<path d="M185.928 295.688C185.694 295.688 185.461 295.649 185.238 295.575L160.075 287.146C159.644 287.002 159.27 286.726 159.004 286.358C158.739 285.989 158.596 285.547 158.596 285.093V267.223C107.785 251.737 107.328 251.387 106.927 251.078C106.497 250.752 106.203 250.278 106.105 249.748C106.006 249.218 106.109 248.67 106.393 248.211C106.677 247.753 107.123 247.417 107.642 247.269C108.161 247.121 108.717 247.172 109.201 247.412C111.371 248.24 141.498 257.48 161.395 263.544C161.839 263.679 162.228 263.953 162.504 264.326C162.781 264.699 162.93 265.15 162.93 265.614V283.531L186.614 291.463C187.102 291.627 187.515 291.958 187.781 292.398C188.047 292.838 188.147 293.358 188.065 293.865C187.982 294.372 187.721 294.833 187.329 295.166C186.938 295.499 186.44 295.682 185.926 295.682L185.928 295.688Z" fill="#124F35"/>
<path d="M157.602 393.979C147.106 393.976 136.627 393.155 126.26 391.523C106.278 388.367 93.7699 383.378 93.2467 383.167C92.7237 382.945 92.3089 382.527 92.0915 382.003C91.8741 381.478 91.8715 380.89 92.0842 380.363C92.2969 379.837 92.708 379.415 93.229 379.189C93.75 378.962 94.3393 378.948 94.8702 379.151C95.3672 379.351 145.228 398.979 202.971 384.005C203.52 383.882 204.095 383.977 204.576 384.27C205.056 384.563 205.403 385.03 205.545 385.574C205.686 386.118 205.611 386.695 205.334 387.184C205.057 387.674 204.6 388.036 204.061 388.195C187.474 392.497 171.597 393.979 157.602 393.979Z" fill="#124F35"/>
<g opacity="0.3">
<path d="M208.127 372.335C206.566 377.69 202.095 392.075 197.636 397.704C193.285 403.183 154.634 408.956 122.946 402.68C172.699 408.497 169.7 376.075 169.7 376.075L208.127 372.335Z" fill="#124F35"/>
</g>
<path d="M88.7171 220.433C88.5299 220.433 88.3435 220.409 88.1624 220.361L56.904 212.134C56.6285 212.062 56.3699 211.936 56.1431 211.763C55.9164 211.591 55.7258 211.376 55.5822 211.13C55.4387 210.884 55.3451 210.613 55.3067 210.331C55.2683 210.049 55.286 209.762 55.3585 209.487C55.4311 209.212 55.5573 208.954 55.7298 208.727C55.9023 208.501 56.1178 208.311 56.364 208.167C56.6101 208.024 56.8822 207.931 57.1645 207.892C57.4468 207.854 57.734 207.871 58.0095 207.944L89.2679 216.171C89.7769 216.306 90.2195 216.62 90.5133 217.056C90.807 217.493 90.9319 218.021 90.8644 218.542C90.797 219.064 90.542 219.543 90.1469 219.89C89.7518 220.238 89.2436 220.43 88.7171 220.431V220.433Z" fill="#124F35"/>
<g opacity="0.3">
<path d="M90.1662 212.989C85.6511 231.745 70.254 236.326 41.8728 223.996L37.8691 230.877L82.867 242.155L85.2878 231.033" fill="#124F35"/>
</g>
<path d="M57.7813 139.268C57.3521 139.267 56.93 139.158 56.5549 138.95C56.1797 138.741 55.8638 138.441 55.6368 138.077C55.4098 137.714 55.2792 137.298 55.2572 136.87C55.2353 136.442 55.3227 136.015 55.5113 135.63L64.5167 117.266C64.709 116.807 65.033 116.415 65.4479 116.139C65.8628 115.863 66.35 115.716 66.8483 115.717C67.2779 115.716 67.7005 115.825 68.0762 116.033C68.4519 116.241 68.7684 116.542 68.9958 116.906C69.2231 117.269 69.3539 117.685 69.3759 118.114C69.3978 118.542 69.31 118.969 69.121 119.354L60.0487 137.853C59.8411 138.276 59.5186 138.634 59.1178 138.884C58.717 139.134 58.254 139.267 57.7813 139.268Z" fill="#124F35"/>
<path d="M58.4331 138.476L51.1339 137.8L57.1335 133.593L58.4331 138.476Z" fill="#124F35"/>
<path d="M84.8642 188.97C83.6363 188.969 82.4314 188.637 81.3759 188.01L59.0822 174.856C57.5942 173.967 56.4921 172.555 55.9917 170.897C55.4913 169.239 55.6286 167.455 56.3768 165.893L90.0639 96.5045C90.8139 94.9576 92.1298 93.7571 93.7402 93.1504C95.3506 92.5438 97.1327 92.5773 98.7191 93.2441L108.01 97.1383C108.273 97.2485 108.511 97.4092 108.712 97.6113C108.912 97.8134 109.071 98.0529 109.178 98.3162C109.286 98.5795 109.341 98.8615 109.339 99.1459C109.338 99.4303 109.281 99.7117 109.17 99.9739C109.06 100.236 108.899 100.474 108.697 100.674C108.494 100.874 108.254 101.033 107.991 101.14C107.727 101.248 107.445 101.302 107.16 101.301C106.875 101.3 106.593 101.242 106.33 101.132L97.0379 97.2352C96.4758 96.9994 95.8444 96.9878 95.274 97.2029C94.7036 97.4181 94.2375 97.8434 93.9719 98.3914L60.2848 167.778C60.005 168.362 59.9535 169.028 60.1403 169.647C60.3271 170.266 60.7388 170.793 61.2946 171.125L83.5883 184.28C84.0506 184.554 84.5895 184.672 85.1244 184.615C85.6593 184.559 86.1615 184.331 86.5559 183.966L87.2523 183.325C87.461 183.128 87.7067 182.975 87.9753 182.873C88.2438 182.772 88.5299 182.725 88.8168 182.735C89.1037 182.745 89.3858 182.811 89.6468 182.931C89.9077 183.05 90.1423 183.221 90.3369 183.431C90.5315 183.642 90.6822 183.889 90.7804 184.159C90.8786 184.428 90.9222 184.714 90.9088 185.001C90.8953 185.287 90.8251 185.568 90.7021 185.827C90.5792 186.086 90.4059 186.318 90.1924 186.51L89.4961 187.15C88.237 188.318 86.5827 188.968 84.8642 188.97Z" fill="#124F35"/>
<path d="M62.3174 142.645C62.0087 142.645 61.705 142.566 61.4355 142.416C61.1659 142.265 60.9394 142.049 60.7777 141.786C60.6159 141.523 60.5243 141.224 60.5114 140.916C60.4986 140.608 60.5651 140.301 60.7044 140.026L85.3678 91.1018C90.2305 81.6464 98.1225 82.7673 98.4569 82.8197C98.9239 82.8992 99.341 83.1588 99.6183 83.5424C99.8956 83.926 100.011 84.4031 99.9394 84.8708C99.8678 85.3385 99.6152 85.7594 99.2359 86.0429C98.8565 86.3264 98.3809 86.4498 97.9113 86.3866C97.6569 86.3525 92.2028 85.7096 88.5886 92.7373L63.9344 141.65C63.7842 141.949 63.5533 142.201 63.2677 142.377C62.982 142.553 62.653 142.646 62.3174 142.645Z" fill="#124F35"/>
<path d="M51.5417 180.812C51.2467 180.813 50.9561 180.74 50.6959 180.602C44.8418 177.496 45.4503 171.959 46.5991 169.471L50.8572 160.054C51.0544 159.618 51.4171 159.278 51.8654 159.108C52.3137 158.939 52.811 158.955 53.2479 159.152C53.6847 159.349 54.0253 159.711 54.1948 160.158C54.3642 160.606 54.3486 161.103 54.1514 161.539L49.8894 170.967C49.5851 171.657 48.2711 175.226 52.3915 177.412C52.7514 177.599 53.0376 177.902 53.2042 178.271C53.3708 178.641 53.408 179.055 53.3099 179.448C53.2118 179.841 52.984 180.19 52.6633 180.438C52.3425 180.687 51.9475 180.82 51.5417 180.816V180.812Z" fill="#124F35"/>
<g opacity="0.3">
<path d="M54.4583 180.554C63.6004 194.567 57.0797 204.797 34.8962 211.245H42.0171C42.0171 211.245 38.5694 214.735 41.4178 224.601C41.4178 224.601 59.6002 205.055 71.3595 199.641L70.5268 189.081" fill="#124F35"/>
</g>
<g opacity="0.3">
<path d="M79.0836 167.46C79.0836 167.46 81.5753 189.795 50.0887 176.342L51.1378 179.971L80.3819 194.305L86.9913 194.41L92.2212 189.535L83.8505 175.64" fill="#124F35"/>
</g>
<path d="M93.9168 49.9229C97.3255 44.3695 98.8073 37.8494 98.1329 31.3708C96.4517 15.0108 81.8047 3.11065 65.4202 4.78934C49.0356 6.46803 37.1177 21.0944 38.7989 37.4545C40.4801 53.8145 55.127 65.7147 71.5116 64.036C75.9171 63.59 80.167 62.1659 83.9502 59.8681L97.7513 62.9596L93.9168 49.9229Z" fill="white"/>
<g opacity="0.5">
<path d="M66.0064 10.4879C81.3116 8.91663 95.097 19.2022 98.2181 33.8993C98.224 32.8385 98.1732 31.7781 98.066 30.7226C96.3848 14.3626 81.7378 2.46112 65.3533 4.14112C48.9687 5.82112 37.0508 20.4449 38.7333 36.8049C38.843 37.865 39.0093 38.9184 39.2316 39.9607C39.2893 24.931 50.6958 12.058 66.0064 10.4879Z" fill="white"/>
</g>
<path d="M52.0453 37.0944C54.3984 37.0944 56.306 35.1897 56.306 32.84C56.306 30.4904 54.3984 28.5857 52.0453 28.5857C49.6921 28.5857 47.7845 30.4904 47.7845 32.84C47.7845 35.1897 49.6921 37.0944 52.0453 37.0944Z" fill="#124F35"/>
<path d="M68.6344 37.0944C70.9875 37.0944 72.8951 35.1897 72.8951 32.84C72.8951 30.4904 70.9875 28.5857 68.6344 28.5857C66.2813 28.5857 64.3737 30.4904 64.3737 32.84C64.3737 35.1897 66.2813 37.0944 68.6344 37.0944Z" fill="#124F35"/>
<path d="M85.2235 37.0944C87.5767 37.0944 89.4843 35.1897 89.4843 32.84C89.4843 30.4904 87.5767 28.5857 85.2235 28.5857C82.8704 28.5857 80.9628 30.4904 80.9628 32.84C80.9628 35.1897 82.8704 37.0944 85.2235 37.0944Z" fill="#124F35"/>
<path d="M68.4059 66.8144C61.2802 66.8034 54.3561 64.4513 48.7022 60.1208C43.0483 55.7904 38.9787 49.7224 37.1216 42.8532C35.2645 35.984 35.7231 28.6955 38.4265 22.1124C41.1299 15.5292 45.9279 10.0174 52.0801 6.4275C58.2323 2.83757 65.3967 1.36907 72.4678 2.2486C79.5388 3.12814 86.1235 6.30683 91.2056 11.2942C96.2877 16.2815 99.5848 22.8002 100.588 29.8444C101.591 36.8886 100.245 44.0667 96.7569 50.271L100.268 62.2222C100.396 62.6596 100.408 63.123 100.303 63.5665C100.197 64.01 99.977 64.4183 99.6647 64.7509C99.3525 65.0836 98.9587 65.3291 98.5224 65.4632C98.086 65.5972 97.6221 65.6153 97.1766 65.5154L84.3839 62.6504C80.5048 64.8379 76.2128 66.197 71.7801 66.6415C70.659 66.7563 69.5328 66.814 68.4059 66.8144ZM68.5174 7.25083C67.5726 7.25113 66.6285 7.29965 65.6887 7.39618C61.631 7.81368 57.7193 9.13715 54.2432 11.2686C50.7671 13.4 47.8156 16.2849 45.6074 19.7095C43.3991 23.1342 41.9905 27.0109 41.4859 31.0527C40.9814 35.0946 41.3937 39.1979 42.6925 43.0591C43.9912 46.9202 46.1431 50.4402 48.9888 53.3585C51.8345 56.2768 55.3011 58.5186 59.132 59.9179C62.963 61.3173 67.06 61.8383 71.1199 61.4425C75.1798 61.0467 79.0985 59.7441 82.586 57.6313C83.1657 57.278 83.8604 57.1638 84.5229 57.3131L93.9807 59.4305L91.4038 50.6573C91.3013 50.3064 91.2731 49.938 91.3212 49.5757C91.3693 49.2134 91.4926 48.8651 91.6831 48.553C94.1957 44.4395 95.567 39.7326 95.6566 34.9152C95.7462 30.0979 94.5507 25.3434 92.1929 21.1396C89.835 16.9358 86.3996 13.4339 82.2391 10.9932C78.0786 8.55257 73.3428 7.26093 68.5174 7.25083Z" fill="#124F35"/>
<g opacity="0.3">
<path d="M94.0886 49.6361C85.9173 56.5355 74.6668 59.5563 63.4924 56.7738C51.0984 53.694 41.9672 44.2713 38.6835 32.8347C38.6036 34.3736 38.6426 35.9163 38.8002 37.4492C40.4827 53.8092 55.1283 65.7107 71.5129 64.0307C75.9176 63.5861 80.167 62.1638 83.9502 59.868L97.7513 62.9595L93.9168 49.9228C93.9797 49.8338 94.0322 49.7316 94.0886 49.6361Z" fill="#124F35"/>
</g>
<path opacity="0.68" d="M136.67 172.91C163.452 172.91 185.164 151.231 185.164 124.488C185.164 97.746 163.452 76.0669 136.67 76.0669C109.887 76.0669 88.1755 97.746 88.1755 124.488C88.1755 151.231 109.887 172.91 136.67 172.91Z" fill="#26CE92" fill-opacity="0.25"/>
<path opacity="0.68" d="M210.632 198.051C237.415 198.051 259.126 176.372 259.126 149.63C259.126 122.887 237.415 101.208 210.632 101.208C183.85 101.208 162.138 122.887 162.138 149.63C162.138 176.372 183.85 198.051 210.632 198.051Z" fill="#26CE92" fill-opacity="0.25"/>
</g>
<defs>
<linearGradient id="paint0_linear_73_41" x1="158.883" y1="331.904" x2="167.358" y2="347.072" gradientUnits="userSpaceOnUse">
<stop stop-color="white"/>
<stop offset="1" stop-color="#F1F2F2"/>
</linearGradient>
<clipPath id="clip0_73_41">
<rect width="307" height="455" fill="white"/>
</clipPath>
</defs>
</svg>
